<svg preserveAspectRatio="none" width="100%" height="100%" overflow="visible" style="display: block;" viewBox="0 0 14 14" fill="none" xmlns="http://www.w3.org/2000/svg">
<path id="Vector" d="M6.66667 0C10.3487 0 13.3333 2.98467 13.3333 6.66667C13.3333 10.3487 10.3487 13.3333 6.66667 13.3333C2.98467 13.3333 0 10.3487 0 6.66667H1.33333C1.33333 9.612 3.72133 12 6.66667 12C9.612 12 12 9.612 12 6.66667C12 3.72133 9.612 1.33333 6.66667 1.33333C4.83333 1.33333 3.216 2.258 2.25667 3.66667H4V5H0V1H1.33333V2.66667C2.54933 1.04667 4.486 0 6.66667 0ZM7.33333 3.33333V6.39L9.49533 8.552L8.552 9.49533L6 6.942V3.33333H7.33333Z" fill="var(--fill-0, #0F1324)" fill-opacity="0.6"/>
</svg>
