<svg width="14" height="14" viewBox="0 0 14 14" fill="none" xmlns="http://www.w3.org/2000/svg">
<path d="M12.25 4.66669V12.2459C12.2505 12.3225 12.236 12.3985 12.2072 12.4695C12.1783 12.5405 12.1358 12.6051 12.082 12.6596C12.0282 12.7142 11.9642 12.7576 11.8937 12.7874C11.8231 12.8172 11.7474 12.8328 11.6707 12.8334H2.32925C2.17572 12.8334 2.02848 12.7724 1.91986 12.6639C1.81125 12.5554 1.75015 12.4082 1.75 12.2547V1.74535C1.75 1.4321 2.01192 1.16669 2.3345 1.16669H8.74825L12.25 4.66669ZM11.0833 5.25002H8.16667V2.33335H2.91667V11.6667H11.0833V5.25002ZM4.66667 4.08335H6.41667V5.25002H4.66667V4.08335ZM4.66667 6.41669H9.33333V7.58335H4.66667V6.41669ZM4.66667 8.75002H9.33333V9.91669H4.66667V8.75002Z" fill="#0F1324" fill-opacity="0.6"/>
</svg>
