<svg width="14" height="14" viewBox="0 0 14 14" fill="none" xmlns="http://www.w3.org/2000/svg">
<path d="M1.75 1.74535C1.75 1.42569 2.01075 1.16669 2.33275 1.16669H9.33333L12.25 4.08335V12.2459C12.2505 12.3225 12.236 12.3985 12.2072 12.4695C12.1783 12.5405 12.1358 12.6051 12.082 12.6596C12.0282 12.7142 11.9642 12.7576 11.8937 12.7874C11.8231 12.8172 11.7474 12.8328 11.6707 12.8334H2.32925C2.17605 12.8323 2.02943 12.771 1.92104 12.6627C1.81266 12.5544 1.75122 12.4079 1.75 12.2547V1.74535ZM2.91667 2.33335V11.6667H11.0833V4.66669H9.33333V8.16669H5.83333V9.33335H4.66667V4.66669H8.75V2.33335H2.91667ZM5.83333 5.83335V7.00002H8.16667V5.83335H5.83333Z" fill="#0F1324" fill-opacity="0.6"/>
</svg>
