<svg width="16" height="16" viewBox="0 0 16 16" fill="none" xmlns="http://www.w3.org/2000/svg">
<path d="M7.99999 1.33331C11.682 1.33331 14.6667 4.31798 14.6667 7.99998C14.6667 11.682 11.682 14.6666 7.99999 14.6666C4.31799 14.6666 1.33333 11.682 1.33333 7.99998H2.66666C2.66666 10.9453 5.05466 13.3333 7.99999 13.3333C10.9453 13.3333 13.3333 10.9453 13.3333 7.99998C13.3333 5.05465 10.9453 2.66665 7.99999 2.66665C6.16666 2.66665 4.54933 3.59131 3.58999 4.99998H5.33333V6.33331H1.33333V2.33331H2.66666V3.99998C3.88266 2.37998 5.81933 1.33331 7.99999 1.33331ZM8.66666 4.66665V7.72331L10.8287 9.88531L9.88533 10.8286L7.33333 8.27531V4.66665H8.66666Z" fill="#0F1324" fill-opacity="0.6"/>
</svg>
