<svg preserveAspectRatio="none" width="100%" height="100%" overflow="visible" style="display: block;" viewBox="0 0 37 35" fill="none" xmlns="http://www.w3.org/2000/svg">
<path id="Vector" d="M7.50383 34.3603C7.21547 34.5407 6.88261 34.6374 6.54247 34.6394C6.20234 34.6415 5.86834 34.5488 5.57783 34.3719C5.28732 34.195 5.05177 33.9407 4.8975 33.6376C4.74324 33.3344 4.67636 32.9943 4.70433 32.6553L5.049 28.512C5.09224 27.9936 5.02469 27.472 4.85084 26.9817C4.67699 26.4915 4.40082 26.0438 4.04067 25.6685C3.84837 25.471 3.6625 25.2674 3.48333 25.058C1.29433 22.4528 0 19.2408 0 15.7667C0 7.05833 8.12533 0 18.15 0C28.1747 0 36.3 7.05833 36.3 15.7667C36.3 24.475 28.1747 31.5333 18.15 31.5333C17.215 31.5333 16.2983 31.4728 15.4018 31.3537C15.0535 31.3066 14.7058 31.2552 14.3587 31.1997C13.4997 31.0641 12.6206 31.2383 11.8782 31.691L7.502 34.3603H7.50383Z" fill="var(--fill-0, #14151A)"/>
</svg>
