<svg preserveAspectRatio="none" width="100%" height="100%" overflow="visible" style="display: block;" viewBox="0 0 16 27" fill="none" xmlns="http://www.w3.org/2000/svg">
<g id="3">
<path id="Ellipse 5" d="M7.65776e-07 18.9714C5.81926e-07 21.1007 0.835414 23.1428 2.32246 24.6485C3.8095 26.1541 5.82637 27 7.92937 27C10.0324 27 12.0492 26.1541 13.5363 24.6485C15.0233 23.1428 15.8587 21.1007 15.8587 18.9714L10.7839 18.9714C10.7839 19.7379 10.4832 20.4731 9.94786 21.0151C9.41252 21.5572 8.68645 21.8617 7.92937 21.8617C7.17229 21.8617 6.44622 21.5572 5.91088 21.0151C5.37555 20.4731 5.0748 19.7379 5.0748 18.9714L7.65776e-07 18.9714Z" fill="var(--fill-0, white)"/>
<ellipse id="Ellipse 4" cx="7.92937" cy="8.02864" rx="7.92937" ry="8.02864" fill="var(--fill-0, white)"/>
</g>
</svg>
