<svg preserveAspectRatio="none" width="100%" height="100%" overflow="visible" style="display: block;" viewBox="0 0 16 27" fill="none" xmlns="http://www.w3.org/2000/svg">
<g id="9">
<path id="Ellipse 1" d="M7.92937 16.0573C9.49765 16.0573 11.0307 15.5864 12.3347 14.7042C13.6387 13.822 14.655 12.5681 15.2551 11.1011C15.8553 9.63402 16.0123 8.01973 15.7064 6.46233C15.4004 4.90493 14.6452 3.47436 13.5363 2.35154C12.4273 1.22871 11.0145 0.464059 9.47631 0.154272C7.93817 -0.155515 6.34383 0.0034785 4.89493 0.611147C3.44603 1.21881 2.20763 2.24786 1.33634 3.56817C0.46505 4.88847 2.36804e-07 6.44072 0 8.02864L7.92937 8.02864L7.92937 16.0573Z" fill="var(--fill-0, white)"/>
<path id="Ellipse 2" d="M0 18.9714C-1.37103e-07 20.5593 0.465049 22.1115 1.33634 23.4318C2.20763 24.7521 3.44603 25.7812 4.89493 26.3889C6.34383 26.9965 7.93816 27.1555 9.47631 26.8457C11.0145 26.536 12.4273 25.7713 13.5363 24.6485C14.6452 23.5256 15.4004 22.0951 15.7064 20.5377C16.0123 18.9803 15.8553 17.366 15.2551 15.8989C14.655 14.4319 13.6387 13.178 12.3347 12.2958C11.0307 11.4136 9.49765 10.9427 7.92937 10.9427L7.92937 16.0811C8.49395 16.0811 9.04585 16.2506 9.51528 16.5682C9.98472 16.8858 10.3506 17.3372 10.5666 17.8653C10.7827 18.3934 10.8392 18.9746 10.7291 19.5352C10.6189 20.0959 10.3471 20.6109 9.94786 21.0151C9.54864 21.4193 9.04 21.6946 8.48627 21.8061C7.93253 21.9177 7.35858 21.8604 6.83697 21.6417C6.31537 21.4229 5.86954 21.0524 5.55588 20.5771C5.24221 20.1018 5.0748 19.543 5.0748 18.9714L0 18.9714Z" fill="var(--fill-0, white)"/>
</g>
</svg>
