<svg width="147" height="44" viewBox="0 0 147 44" fill="none" xmlns="http://www.w3.org/2000/svg">
<rect y="2.5" width="90" height="39" rx="19.5" fill="#14151A"/>
<path d="M25.9294 24.5573C27.4976 24.5573 29.0307 24.0864 30.3347 23.2042C31.6387 22.322 32.655 21.0681 33.2551 19.6011C33.8553 18.134 34.0123 16.5197 33.7064 14.9623C33.4004 13.4049 32.6452 11.9744 31.5363 10.8515C30.4273 9.72871 29.0145 8.96405 27.4763 8.65427C25.9382 8.34448 24.3438 8.50347 22.8949 9.11114C21.446 9.71881 20.2076 10.7479 19.3363 12.0682C18.465 13.3885 18 14.9407 18 16.5286L25.9294 16.5286L25.9294 24.5573Z" fill="white"/>
<path d="M18 27.4714C18 29.0593 18.465 30.6115 19.3363 31.9318C20.2076 33.2521 21.446 34.2812 22.8949 34.8889C24.3438 35.4965 25.9382 35.6555 27.4763 35.3457C29.0145 35.0359 30.4273 34.2713 31.5363 33.1485C32.6452 32.0256 33.4004 30.5951 33.7064 29.0377C34.0123 27.4803 33.8553 25.866 33.2551 24.3989C32.655 22.9319 31.6387 21.678 30.3347 20.7958C29.0307 19.9136 27.4977 19.4427 25.9294 19.4427L25.9294 24.5811C26.4939 24.5811 27.0459 24.7506 27.5153 25.0682C27.9847 25.3858 28.3506 25.8372 28.5667 26.3653C28.7827 26.8934 28.8392 27.4746 28.7291 28.0352C28.6189 28.5959 28.3471 29.1109 27.9479 29.5151C27.5486 29.9193 27.04 30.1946 26.4863 30.3061C25.9325 30.4177 25.3586 30.3604 24.837 30.1417C24.3154 29.9229 23.8695 29.5524 23.5559 29.0771C23.2422 28.6018 23.0748 28.043 23.0748 27.4714L18 27.4714Z" fill="white"/>
<path d="M45 8.5C40.6207 8.5 37.0706 12.0945 37.0706 16.5286V27.4714C37.0706 31.9055 40.6207 35.5 45 35.5C49.3793 35.5 52.9294 31.9055 52.9294 27.4714V16.5286C52.9294 12.0945 49.3793 8.5 45 8.5Z" fill="white"/>
<path d="M56.1413 27.4714C56.1413 29.6007 56.9767 31.6428 58.4637 33.1485C59.9508 34.6541 61.9676 35.5 64.0706 35.5C66.1736 35.5 68.1905 34.6541 69.6775 33.1485C71.1646 31.6428 72 29.6007 72 27.4714L66.9252 27.4714C66.9252 28.2379 66.6245 28.9731 66.0891 29.5151C65.5538 30.0572 64.8277 30.3617 64.0706 30.3617C63.3136 30.3617 62.5875 30.0572 62.0521 29.5151C61.5168 28.9731 61.2161 28.2379 61.2161 27.4714L56.1413 27.4714Z" fill="white"/>
<ellipse cx="64.0706" cy="16.5286" rx="7.92937" ry="8.02864" fill="white"/>
<path d="M103.354 40.227C103.065 40.4074 102.733 40.504 102.392 40.5061C102.052 40.5081 101.718 40.4155 101.428 40.2386C101.137 40.0616 100.902 39.8074 100.748 39.5042C100.593 39.2011 100.526 38.861 100.554 38.522L100.899 34.3787C100.942 33.8603 100.875 33.3387 100.701 32.8484C100.527 32.3581 100.251 31.9105 99.8907 31.5352C99.6984 31.3377 99.5125 31.1341 99.3333 30.9247C97.1443 28.3195 95.85 25.1075 95.85 21.6333C95.85 12.925 103.975 5.86667 114 5.86667C124.025 5.86667 132.15 12.925 132.15 21.6333C132.15 30.3417 124.025 37.4 114 37.4C113.065 37.4 112.148 37.3395 111.252 37.2203C110.904 37.1732 110.556 37.1219 110.209 37.0663C109.35 36.9308 108.471 37.1049 107.728 37.5577L103.352 40.227H103.354Z" fill="#14151A"/>
<path d="M110.881 3.65418C111.779 1.63603 114.144 0.728409 116.162 1.62695L142.655 13.4223C144.673 14.3208 145.581 16.6853 144.682 18.7034L141.428 26.0118C140.53 28.03 138.165 28.9376 136.147 28.039L109.654 16.2437C107.636 15.3451 106.728 12.9807 107.627 10.9625L110.881 3.65418Z" fill="#0B98FF"/>
<path d="M112.13 12.9676L115.581 5.21677L118.418 6.47988C120.072 7.2163 120.477 8.45461 119.964 9.60546C119.533 10.5743 118.722 10.7969 117.929 10.6619L117.896 10.7369C118.647 11.1229 119.182 12.1691 118.648 13.3681C118.119 14.5564 116.905 15.0935 115.096 14.2879L112.13 12.9676ZM113.756 12.4856L115.437 13.234C116.553 13.7243 117.219 13.4374 117.505 12.7951C117.836 12.051 117.512 11.1947 116.581 10.78L114.857 10.0126L113.756 12.4856ZM115.267 9.09194L116.83 9.78784C117.614 10.1304 118.434 9.93108 118.765 9.18704C119.051 8.5447 118.821 7.86514 117.895 7.45284L116.311 6.74741L115.267 9.09194ZM118.982 16.0182L122.433 8.2673L127.293 10.4313L126.84 11.4483L123.158 9.80864L122.114 12.1532L125.54 13.6784L125.092 14.6848L121.666 13.1595L120.612 15.5254L124.338 17.1842L123.885 18.2012L118.982 16.0182ZM127.9 11.9202L128.353 10.9031L134.359 13.5771L133.906 14.5942L131.497 13.5217L128.499 20.2555L127.322 19.7312L130.32 12.9974L127.9 11.9202ZM131.839 21.7427L130.587 21.185L136.821 14.6734L138.181 15.2787L137.524 24.2736L136.272 23.716L136.475 21.3566L133.456 20.0125L131.839 21.7427ZM134.232 19.1777L136.571 20.2192L136.899 16.4011L136.845 16.3773L134.232 19.1777Z" fill="white"/>
</svg>
