<svg viewBox="0 0 11 12" fill="none" xmlns="http://www.w3.org/2000/svg">
  <path
    d="M10.5 3.5V11.0793C10.5005 11.1559 10.486 11.2318 10.4572 11.3028C10.4283 11.3738 10.3858 11.4384 10.332 11.4929C10.2782 11.5475 10.2142 11.5909 10.1437 11.6207C10.0731 11.6505 9.99735 11.6661 9.92075 11.6667H0.57925C0.425724 11.6667 0.278478 11.6057 0.169865 11.4972C0.0612508 11.3887 0.000154608 11.2415 0 11.088V0.578667C0 0.265417 0.261917 0 0.5845 0H6.99825L10.5 3.5ZM9.33333 4.08333H6.41667V1.16667H1.16667V10.5H9.33333V4.08333ZM2.91667 2.91667H4.66667V4.08333H2.91667V2.91667ZM2.91667 5.25H7.58333V6.41667H2.91667V5.25ZM2.91667 7.58333H7.58333V8.75H2.91667V7.58333Z"
    fill="#14151A99"
  />
</svg>

