<svg width="16" height="16" viewBox="0 0 16 16" fill="none" xmlns="http://www.w3.org/2000/svg">
<rect x="1.45453" y="5.09088" width="13.0909" height="5.67273" rx="2.83636" fill="#14151A"/>
<path d="M5.22606 8.29923C5.45417 8.29923 5.67716 8.23074 5.86683 8.10242C6.0565 7.9741 6.20433 7.79171 6.29162 7.57832C6.37892 7.36493 6.40176 7.13013 6.35726 6.9036C6.31275 6.67707 6.20291 6.46898 6.04161 6.30566C5.88031 6.14234 5.6748 6.03112 5.45107 5.98606C5.22734 5.941 4.99543 5.96413 4.78468 6.05252C4.57393 6.1409 4.3938 6.29058 4.26707 6.48263C4.14034 6.67467 4.07269 6.90045 4.07269 7.13142L5.22606 7.13142L5.22606 8.29923Z" fill="white"/>
<path d="M4.07269 8.7231C4.07269 8.95407 4.14034 9.17985 4.26707 9.37189C4.3938 9.56394 4.57393 9.71362 4.78468 9.80201C4.99543 9.8904 5.22733 9.91352 5.45107 9.86846C5.6748 9.8234 5.88031 9.71218 6.04161 9.54886C6.20291 9.38554 6.31275 9.17746 6.35726 8.95093C6.40176 8.72439 6.37892 8.48959 6.29162 8.2762C6.20433 8.06281 6.0565 7.88043 5.86683 7.75211C5.67716 7.62379 5.45417 7.5553 5.22606 7.5553L5.22606 8.30269C5.30818 8.30269 5.38845 8.32735 5.45673 8.37354C5.52502 8.41974 5.57823 8.4854 5.60966 8.56222C5.64109 8.63904 5.64931 8.72357 5.63329 8.80512C5.61727 8.88667 5.57772 8.96158 5.51965 9.02037C5.46159 9.07917 5.3876 9.11921 5.30706 9.13543C5.22652 9.15165 5.14303 9.14333 5.06716 9.11151C4.99129 9.07969 4.92644 9.0258 4.88082 8.95667C4.8352 8.88753 4.81084 8.80625 4.81084 8.7231L4.07269 8.7231Z" fill="white"/>
<path d="M7.99998 5.96362C7.363 5.96362 6.84662 6.48647 6.84662 7.13142V8.72309C6.84662 9.36805 7.363 9.8909 7.99998 9.8909C8.63697 9.8909 9.15334 9.36805 9.15334 8.72309V7.13142C9.15334 6.48647 8.63697 5.96362 7.99998 5.96362Z" fill="white"/>
<path d="M9.62048 8.7231C9.62048 9.03282 9.742 9.32985 9.9583 9.54886C10.1746 9.76786 10.468 9.8909 10.7738 9.8909C11.0797 9.8909 11.3731 9.76786 11.5894 9.54886C11.8057 9.32985 11.9272 9.03282 11.9272 8.7231L11.1891 8.7231C11.1891 8.8346 11.1453 8.94153 11.0674 9.02037C10.9896 9.09921 10.884 9.14351 10.7738 9.14351C10.6637 9.14351 10.5581 9.09921 10.4802 9.02037C10.4024 8.94153 10.3586 8.8346 10.3586 8.7231L9.62048 8.7231Z" fill="white"/>
<ellipse cx="10.7738" cy="7.13142" rx="1.15336" ry="1.1678" fill="white"/>
</svg>
